# xmcd
#
# Track frame offsets:
#	150
#	9762
#	21506
#	47670
#	66098
#	81668
#	103274
#	114006
#	130632
#	148709
#
# Disc length: 2233 seconds
#
# Revision: 1
# Processed by: cddbd v1.5.1PL2 Copyright (c) Steve Scherf et al.
# Submitted via: audiograbber 1.83.01
#
DISCID=8008b70a
DTITLE=Bellwether - Seven and six
DYEAR=2005
DGENRE=Country
TTITLE0=Half life
TTITLE1=Miss you twice
TTITLE2=Willing to trade
TTITLE3=St. Helena
TTITLE4=This time
TTITLE5=Catalina
TTITLE6=I thought that you were dead
TTITLE7=Lately
TTITLE8=Favorite worry
TTITLE9=Via Washington
EXTD=
EXTT0=
EXTT1=
EXTT2=
EXTT3=
EXTT4=
EXTT5=
EXTT6=
EXTT7=
EXTT8=
EXTT9=
PLAYORDER=
